<svg width="200" height="200" viewBox="0 0 200 200" fill="none" xmlns="http://www.w3.org/2000/svg">
<g clip-path="url(#clip0_36_13)">
<rect width="200" height="200" fill="#11111b"/>
<path d="M35.6591 160.727V40.7273H59.5227V55.3864H60.6023C61.6629 53.0379 63.197 50.6515 65.2045 48.2273C67.25 45.7652 69.9015 43.7197 73.1591 42.0909C76.4545 40.4242 80.5455 39.5909 85.4318 39.5909C91.7955 39.5909 97.6667 41.2576 103.045 44.5909C108.424 47.8864 112.723 52.8674 115.943 59.5341C119.163 66.1629 120.773 74.4773 120.773 84.4773C120.773 94.2121 119.201 102.432 116.057 109.136C112.951 115.803 108.708 120.86 103.33 124.307C97.9886 127.716 92.0038 129.42 85.375 129.42C80.678 129.42 76.6818 128.644 73.3864 127.091C70.1288 125.538 67.4583 123.587 65.375 121.239C63.2917 118.852 61.7008 116.447 60.6023 114.023H59.8636V160.727H35.6591ZM59.3523 84.3636C59.3523 89.553 60.072 94.0795 61.5114 97.9432C62.9508 101.807 65.0341 104.818 67.7614 106.977C70.4886 109.098 73.803 110.159 77.7045 110.159C81.6439 110.159 84.9773 109.08 87.7045 106.92C90.4318 104.723 92.4962 101.693 93.8977 97.8295C95.3371 93.928 96.0568 89.4394 96.0568 84.3636C96.0568 79.3258 95.3561 74.8939 93.9545 71.0682C92.553 67.2424 90.4886 64.25 87.7614 62.0909C85.0341 59.9318 81.6818 58.8523 77.7045 58.8523C73.7652 58.8523 70.4318 59.8939 67.7045 61.9773C65.0152 64.0606 62.9508 67.0151 61.5114 70.8409C60.072 74.6667 59.3523 79.1742 59.3523 84.3636ZM151.057 129.477C147.307 129.477 144.087 128.152 141.398 125.5C138.746 122.811 137.42 119.591 137.42 115.841C137.42 112.129 138.746 108.947 141.398 106.295C144.087 103.644 147.307 102.318 151.057 102.318C154.693 102.318 157.875 103.644 160.602 106.295C163.33 108.947 164.693 112.129 164.693 115.841C164.693 118.341 164.049 120.633 162.761 122.716C161.511 124.761 159.864 126.409 157.818 127.659C155.773 128.871 153.519 129.477 151.057 129.477Z" fill="white"/>
</g>
<defs>
<clipPath id="clip0_36_13">
<rect width="200" height="200" fill="white"/>
</clipPath>
</defs>
</svg>