<svg width="200" height="200" viewBox="0 0 200 200" fill="none" xmlns="http://www.w3.org/2000/svg">
<rect width="200" height="200" fill="#171717"/>
<path d="M74.08 38C81.5466 38 87.9466 39.8667 93.28 43.6C98.72 47.2267 102.88 52.4533 105.76 59.28C108.747 66.1067 110.24 74.2133 110.24 83.6C110.24 98.2133 106.933 109.52 100.32 117.52C93.8133 125.413 85.0666 129.36 74.08 129.36C64.8 129.36 57.44 125.467 52 117.68C46.6666 109.787 44 98.4267 44 83.6C44 74 45.2266 65.84 47.68 59.12C50.24 52.2933 53.76 47.0667 58.24 43.44C62.8266 39.8133 68.1066 38 74.08 38ZM68.96 57.84C63.52 57.84 59.4133 60.08 56.64 64.56C53.8666 68.9333 52.48 75.28 52.48 83.6C52.48 92.0267 53.8666 98.48 56.64 102.96C59.52 107.333 63.6266 109.52 68.96 109.52C74.2933 109.52 78.2933 107.333 80.96 102.96C83.7333 98.48 85.12 92.0267 85.12 83.6C85.12 75.28 83.7333 68.9333 80.96 64.56C78.1866 60.08 74.1866 57.84 68.96 57.84ZM52.48 162.16H28V40.72H52.48V162.16ZM109.77 147.76V129.36H172.65V147.76H109.77Z" fill="white"/>
</svg>
