<svg width="543" height="119" viewBox="0 0 543 119" fill="none" xmlns="http://www.w3.org/2000/svg">
<path d="M0.598011 117V0.63636H46.5071C55.3329 0.63636 62.8518 2.32197 69.0639 5.69318C75.276 9.02651 80.0109 13.6667 83.2685 19.6136C86.5639 25.5227 88.2117 32.3409 88.2117 40.0682C88.2117 47.7955 86.545 54.6136 83.2117 60.5227C79.8783 66.4318 75.0488 71.0341 68.723 74.3295C62.4351 77.625 54.8215 79.2727 45.8821 79.2727H16.6207V59.5568H41.9048C46.6397 59.5568 50.5412 58.7424 53.6094 57.1136C56.7154 55.447 59.026 53.1553 60.5412 50.2386C62.0942 47.2841 62.8707 43.8939 62.8707 40.0682C62.8707 36.2045 62.0942 32.8333 60.5412 29.9545C59.026 27.0379 56.7154 24.7841 53.6094 23.1932C50.5033 21.5644 46.5639 20.75 41.7912 20.75H25.2003V117H0.598011ZM141.763 118.705C132.937 118.705 125.304 116.83 118.865 113.08C112.464 109.292 107.52 104.027 104.036 97.2841C100.551 90.5038 98.8082 82.6439 98.8082 73.7045C98.8082 64.6894 100.551 56.8106 104.036 50.0682C107.52 43.2879 112.464 38.0227 118.865 34.2727C125.304 30.4848 132.937 28.5909 141.763 28.5909C150.589 28.5909 158.202 30.4848 164.604 34.2727C171.043 38.0227 176.005 43.2879 179.49 50.0682C182.975 56.8106 184.717 64.6894 184.717 73.7045C184.717 82.6439 182.975 90.5038 179.49 97.2841C176.005 104.027 171.043 109.292 164.604 113.08C158.202 116.83 150.589 118.705 141.763 118.705ZM141.876 99.9545C145.892 99.9545 149.244 98.8182 151.933 96.5455C154.623 94.2348 156.649 91.0909 158.013 87.1136C159.414 83.1364 160.115 78.6098 160.115 73.5341C160.115 68.4583 159.414 63.9318 158.013 59.9545C156.649 55.9773 154.623 52.8333 151.933 50.5227C149.244 48.2121 145.892 47.0568 141.876 47.0568C137.823 47.0568 134.414 48.2121 131.649 50.5227C128.922 52.8333 126.857 55.9773 125.456 59.9545C124.092 63.9318 123.411 68.4583 123.411 73.5341C123.411 78.6098 124.092 83.1364 125.456 87.1136C126.857 91.0909 128.922 94.2348 131.649 96.5455C134.414 98.8182 137.823 99.9545 141.876 99.9545ZM232.615 118.42C225.986 118.42 219.982 116.716 214.604 113.307C209.263 109.86 205.02 104.803 201.876 98.1364C198.77 91.4318 197.217 83.2121 197.217 73.4773C197.217 63.4773 198.827 55.1629 202.047 48.5341C205.267 41.8674 209.547 36.8864 214.888 33.5909C220.267 30.2576 226.157 28.5909 232.558 28.5909C237.445 28.5909 241.517 29.4242 244.774 31.0909C248.07 32.7197 250.721 34.7652 252.729 37.2273C254.774 39.6515 256.327 42.0379 257.388 44.3864H258.126V0.63636H282.274V117H258.411V103.023H257.388C256.251 105.447 254.642 107.852 252.558 110.239C250.513 112.587 247.842 114.538 244.547 116.091C241.289 117.644 237.312 118.42 232.615 118.42ZM240.286 99.1591C244.187 99.1591 247.482 98.0985 250.172 95.9773C252.899 93.8182 254.982 90.8068 256.422 86.9432C257.899 83.0795 258.638 78.553 258.638 73.3636C258.638 68.1742 257.918 63.6667 256.479 59.8409C255.039 56.0151 252.956 53.0606 250.229 50.9773C247.501 48.8939 244.187 47.8523 240.286 47.8523C236.308 47.8523 232.956 48.9318 230.229 51.0909C227.501 53.25 225.437 56.2424 224.036 60.0682C222.634 63.8939 221.933 68.3258 221.933 73.3636C221.933 78.4394 222.634 82.928 224.036 86.8295C225.475 90.6932 227.539 93.7235 230.229 95.9205C232.956 98.0795 236.308 99.1591 240.286 99.1591ZM348.595 29.7273V47.9091H296.038V29.7273H348.595ZM307.97 8.81818H332.175V90.1818C332.175 92.4167 332.516 94.1591 333.197 95.4091C333.879 96.6212 334.826 97.4735 336.038 97.9659C337.288 98.4583 338.728 98.7045 340.357 98.7045C341.493 98.7045 342.629 98.6098 343.766 98.4205C344.902 98.1932 345.773 98.0227 346.379 97.9091L350.186 115.92C348.974 116.299 347.269 116.735 345.072 117.227C342.875 117.758 340.205 118.08 337.061 118.193C331.228 118.42 326.114 117.644 321.72 115.864C317.364 114.083 313.974 111.318 311.55 107.568C309.125 103.818 307.932 99.0833 307.97 93.3636V8.81818ZM403.197 118.705C394.22 118.705 386.493 116.886 380.016 113.25C373.576 109.576 368.614 104.386 365.129 97.6818C361.644 90.9394 359.902 82.9659 359.902 73.7614C359.902 64.7841 361.644 56.9053 365.129 50.125C368.614 43.3447 373.519 38.0606 379.845 34.2727C386.209 30.4848 393.671 28.5909 402.232 28.5909C407.989 28.5909 413.349 29.5189 418.311 31.375C423.311 33.1932 427.667 35.9394 431.379 39.6136C435.129 43.2879 438.046 47.9091 440.129 53.4773C442.213 59.0076 443.254 65.4848 443.254 72.9091V79.5568H369.561V64.5568H420.47C420.47 61.072 419.713 57.9848 418.197 55.2955C416.682 52.6061 414.58 50.5038 411.891 48.9886C409.239 47.4356 406.152 46.6591 402.629 46.6591C398.955 46.6591 395.697 47.5114 392.857 49.2159C390.054 50.8826 387.857 53.1364 386.266 55.9773C384.675 58.7803 383.86 61.9053 383.822 65.3523V79.6136C383.822 83.9318 384.618 87.6629 386.209 90.8068C387.838 93.9508 390.129 96.375 393.084 98.0795C396.038 99.7841 399.542 100.636 403.595 100.636C406.285 100.636 408.747 100.258 410.982 99.5C413.216 98.7424 415.129 97.6061 416.72 96.0909C418.311 94.5758 419.523 92.7197 420.357 90.5227L442.743 92C441.607 97.3788 439.277 102.076 435.754 106.091C432.269 110.068 427.762 113.174 422.232 115.409C416.739 117.606 410.394 118.705 403.197 118.705ZM459.05 117V29.7273H482.516V44.9545H483.425C485.016 39.5379 487.686 35.447 491.436 32.6818C495.186 29.8788 499.504 28.4773 504.391 28.4773C505.603 28.4773 506.91 28.553 508.311 28.7045C509.713 28.8561 510.944 29.0644 512.004 29.3295V50.8068C510.868 50.4659 509.296 50.1629 507.288 49.8977C505.281 49.6326 503.444 49.5 501.777 49.5C498.216 49.5 495.035 50.2765 492.232 51.8295C489.466 53.3447 487.269 55.4659 485.641 58.1932C484.05 60.9205 483.254 64.0644 483.254 67.625V117H459.05ZM528.666 118.477C524.916 118.477 521.696 117.152 519.007 114.5C516.356 111.811 515.03 108.591 515.03 104.841C515.03 101.129 516.356 97.947 519.007 95.2955C521.696 92.6439 524.916 91.3182 528.666 91.3182C532.303 91.3182 535.484 92.6439 538.212 95.2955C540.939 97.947 542.303 101.129 542.303 104.841C542.303 107.341 541.659 109.633 540.371 111.716C539.121 113.761 537.473 115.409 535.428 116.659C533.382 117.871 531.128 118.477 528.666 118.477Z" fill="url(#paint0_linear_53_3)"/>
<defs>
<linearGradient id="paint0_linear_53_3" x1="-10" y1="59" x2="553" y2="59" gradientUnits="userSpaceOnUse">
<stop stop-color="#D20F39"/>
<stop offset="1" stop-color="#E64553"/>
</linearGradient>
</defs>
</svg>
