<svg width="48" height="48" viewBox="0 0 48 48" fill="none" xmlns="http://www.w3.org/2000/svg">
<path d="M41.7589 25.6401C41.8874 25.4123 42.0144 25.1889 42.1235 24.9999C45.9895 18.3038 43.6953 9.74153 36.9992 5.87554C30.3031 2.00955 21.7408 4.3038 17.8748 10.9999L17.7489 11.2176C17.3365 11.9299 17.5671 12.8438 18.2716 13.2694L27.994 19.1435L22.608 28.061C17.8974 28.4763 13.8729 30.9764 11.7076 34.5135C11.8285 34.5024 11.9503 34.498 12.0725 34.5006C12.7428 34.5145 13.3924 34.7354 13.9322 35.133C14.0153 35.1943 14.0953 35.2592 14.1718 35.3277C16.1438 32.4917 19.7042 30.4999 24.0007 30.4999C28.2983 30.4999 31.8594 32.4927 33.8311 35.3298C33.9084 35.2606 33.9891 35.1949 34.0731 35.133C34.6129 34.7354 35.2625 34.5145 35.9327 34.5006C36.0536 34.4981 36.1741 34.5023 36.2936 34.5131C34.1479 31.0083 30.1767 28.5218 25.5215 28.0728L30.1338 20.4363L39.6651 26.1948C40.3934 26.6348 41.3408 26.3812 41.7589 25.6401ZM37.6756 9.43396C41.5869 12.9319 42.6947 18.7681 40.0839 23.527L35.2099 20.5822C35.2157 20.5732 35.2215 20.5639 35.2274 20.5544C35.3463 20.365 35.5089 20.0931 35.6952 19.7471C36.067 19.0563 36.5364 18.0638 36.9384 16.838C37.5778 14.889 38.0558 12.3207 37.6756 9.43396ZM33.4203 7.01795C31.2712 7.98388 29.4163 9.58259 28.0395 11.0069C27.0897 11.9894 26.3226 12.9364 25.7926 13.6376C25.527 13.989 25.3195 14.2806 25.1769 14.4867C25.1713 14.4948 25.1658 14.5028 25.1604 14.5106L20.415 11.6436C23.2704 7.32936 28.6165 5.51658 33.4203 7.01795ZM27.3046 15.8061C27.4254 15.634 27.5875 15.409 27.787 15.145C28.2726 14.5025 28.9742 13.6369 29.837 12.7445C31.315 11.2154 33.1458 9.7339 35.0818 9.04063C35.5931 11.758 35.1717 14.2033 34.563 16.0588C34.2151 17.1194 33.8095 17.9758 33.4938 18.5622C33.3362 18.8549 33.202 19.0788 33.11 19.2254C33.0954 19.2486 33.0819 19.2698 33.0696 19.2891L27.3046 15.8061ZM36.6991 36.7134C36.4987 36.5783 36.2637 36.5044 36.0226 36.5001C36.0141 36.4999 36.0056 36.4999 35.9971 36.4999C35.9895 36.4999 35.982 36.5 35.9744 36.5002C35.7166 36.5055 35.466 36.5905 35.2584 36.7434C35.0508 36.8963 34.8955 37.1097 34.8139 37.3543L34.8129 37.357C34.771 37.4749 33.5169 41.0003 29.9999 41.0003C26.4799 41.0003 25.2349 37.5003 25.1859 37.3543C25.1025 37.1058 24.9432 36.8897 24.7304 36.7367C24.5175 36.5836 24.262 36.5013 23.9999 36.5013C23.7378 36.5013 23.4823 36.5836 23.2695 36.7367C23.0567 36.8897 22.8973 37.1058 22.8139 37.3543L22.8129 37.357C22.771 37.4749 21.5169 41.0003 17.9999 41.0003C14.4799 41.0003 13.2349 37.5003 13.1899 37.3543C13.1758 37.3121 13.1596 37.2709 13.1412 37.2307C13.0532 37.0383 12.9177 36.8698 12.7461 36.7434C12.5385 36.5905 12.2887 36.5055 12.0309 36.5002L12.0094 36.4999C11.7588 36.4988 11.5135 36.5732 11.3054 36.7134C11.0916 36.8576 10.9276 37.0643 10.8359 37.3053C10.8189 37.3503 9.09791 41.7503 5.25391 41.7503C4.92239 41.7503 4.60444 41.882 4.37002 42.1164C4.1356 42.3508 4.00391 42.6688 4.00391 43.0003C4.00391 43.3318 4.1356 43.6497 4.37002 43.8842C4.60444 44.1186 4.92239 44.2503 5.25391 44.2503C6.61361 44.2108 7.94212 43.8336 9.11975 43.1528C10.2974 42.472 11.2872 41.5089 11.9999 40.3503C12.6713 41.3201 13.5677 42.1128 14.6123 42.6605C15.657 43.2082 16.8188 43.4946 17.9983 43.4952C19.1779 43.4957 20.34 43.2105 21.3852 42.6638C22.4304 42.1172 23.3276 41.3254 23.9999 40.3563C24.6723 41.3254 25.5694 42.1172 26.6146 42.6638C27.6598 43.2105 28.822 43.4957 30.0015 43.4952C31.181 43.4946 32.3428 43.2082 33.3875 42.6605C34.4321 42.1128 35.3285 41.3201 35.9999 40.3503C36.713 41.5094 37.7034 42.4729 38.8818 43.1537C40.0602 43.8346 41.3895 44.2114 42.7499 44.2503C43.0814 44.2503 43.3994 44.1186 43.6338 43.8842C43.8682 43.6497 43.9999 43.3318 43.9999 43.0003C43.9999 42.6688 43.8682 42.3508 43.6338 42.1164C43.3994 41.882 43.0814 41.7503 42.7499 41.7503C40.2701 41.7503 38.6616 39.8875 37.8355 38.5736L37.8352 38.5721C37.3918 37.8665 37.1742 37.3196 37.1686 37.3053C37.0769 37.0643 36.9129 36.8576 36.6991 36.7134Z" fill="#F28FAD"/>
</svg>
